<svg viewBox="0 0 200 144" fill="none" xmlns="http://www.w3.org/2000/svg">
<path d="M61.8066 136.941C62.3433 136.941 62.7905 137.298 62.5222 138.282L60.1071 138.819C60.5544 137.746 61.2699 136.941 61.8066 136.941ZM63.1483 140.787H62.701C62.0749 141.502 61.4488 142.039 60.8227 142.039C60.1966 142.039 59.8388 141.681 59.8388 140.787C59.8388 140.429 59.8388 140.071 59.9282 139.713L63.7744 138.461C64.4899 136.672 63.5955 135.867 62.5222 135.867C60.7333 135.867 58.5866 138.908 58.5866 141.592C58.5866 142.754 59.1232 143.47 60.0177 143.47C61.1805 143.47 62.2538 142.397 63.1483 140.787V140.787ZM62.4327 135.152L65.1161 132.647V132.379H63.6849L61.9855 135.241H62.4327V135.152ZM54.0249 136.941H55.2771L53.2199 142.486C53.041 142.933 53.3093 143.47 53.7565 143.47C54.9193 143.47 56.7977 142.307 57.4238 140.787H57.066C56.5293 141.323 55.5454 142.039 54.7404 142.218L56.6188 137.03H58.4971L58.7655 136.225H56.8871L57.6027 134.257H56.8871L55.5454 136.225L53.9354 136.404V136.941H54.0249ZM52.3254 136.672C52.5043 136.135 52.1465 135.867 51.8782 135.867C50.8048 135.867 49.4632 136.851 48.9265 138.282H49.2843C49.6421 137.746 50.2682 137.209 50.8048 137.119L48.6582 142.665C48.4793 143.202 48.837 143.47 49.1054 143.47C50.1787 143.47 51.431 142.486 51.9676 141.055H51.6098C51.2521 141.592 50.6259 142.128 50.0893 142.218L52.3254 136.672ZM52.6832 133.899C53.2199 133.899 53.5776 133.452 53.5776 133.005C53.5776 132.468 53.1304 132.11 52.6832 132.11C52.1465 132.11 51.7887 132.558 51.7887 133.005C51.7887 133.452 52.236 133.899 52.6832 133.899ZM40.4292 142.397C40.1609 143.023 40.4292 143.47 41.0553 143.47C41.4131 143.47 41.592 143.381 41.7709 142.933L43.2914 138.998C44.007 138.193 45.3487 137.298 45.9748 137.298C46.422 137.298 46.3326 137.656 46.0642 138.103L43.8281 142.486C43.6492 142.933 43.9176 143.47 44.3648 143.47C45.4381 143.47 46.7798 142.486 47.3165 141.055H46.9587C46.6009 141.592 45.9748 142.128 45.4381 142.218L47.4059 138.282C47.6743 137.746 47.7637 137.298 47.7637 136.941C47.7637 136.314 47.4059 135.867 46.6904 135.867C45.7065 135.867 44.7226 136.941 43.5598 138.282V137.209C43.5598 136.493 43.2914 135.778 42.6653 135.778C42.2181 135.778 41.8603 136.135 41.5025 136.672V136.851C42.2181 136.851 42.5759 137.924 42.0392 138.998L40.4292 142.397ZM40.4292 137.567C40.6975 136.672 40.5186 135.867 39.8925 135.867C39.0875 135.867 38.8192 136.493 38.0142 138.282V137.209C38.0142 136.493 37.7458 135.778 37.1197 135.778C36.3147 135.778 35.5992 137.03 35.0625 138.193H35.4203C35.7781 137.656 36.1358 137.298 36.4042 137.298C36.7619 137.298 36.9408 137.835 36.4042 138.998L34.8836 142.307C34.6153 142.933 34.8836 143.381 35.5097 143.381C35.8675 143.381 36.0464 143.291 36.2253 142.844L37.7458 138.908C38.1931 138.372 38.5509 137.924 38.9981 137.477H40.4292V137.567ZM31.8425 136.941C32.3791 136.941 32.8264 137.298 32.558 138.282L30.143 138.819C30.5902 137.746 31.3058 136.941 31.8425 136.941ZM33.1841 140.787H32.7369C32.1108 141.502 31.4847 142.039 30.8586 142.039C30.2325 142.039 29.8747 141.681 29.8747 140.787C29.8747 140.429 29.8747 140.071 29.9641 139.713L33.8103 138.461C34.5258 136.672 33.6314 135.867 32.558 135.867C30.7691 135.867 28.6224 138.908 28.6224 141.592C28.6224 142.754 29.1591 143.47 30.0536 143.47C31.2164 143.47 32.2897 142.397 33.1841 140.787ZM24.0607 136.941H25.313L23.2557 142.486C23.0768 142.933 23.3452 143.47 23.7924 143.47C24.9552 143.47 26.8335 142.307 27.4597 140.787H27.1019C26.5652 141.323 25.5813 142.039 24.7763 142.218L26.6547 137.03H28.533L28.8013 136.225H26.923L27.6385 134.257H26.923L25.5813 136.225L23.9713 136.404V136.941H24.0607ZM17.084 141.234C17.084 139.534 18.9624 137.209 20.0357 137.209C20.304 137.209 20.4829 137.209 20.6618 137.298L19.5885 140.25C18.9624 141.055 17.9785 141.949 17.5312 141.949C17.2629 142.039 17.084 141.771 17.084 141.234ZM22.898 135.509H22.2718L21.6457 136.136H21.4668C18.2468 136.136 15.5635 139.713 15.5635 142.307C15.5635 143.023 16.0107 143.47 16.7262 143.47C17.5312 143.47 18.3363 142.307 19.2307 141.055V141.502C19.1413 142.754 19.499 143.47 20.2146 143.47C21.0196 143.47 21.7352 142.218 22.2718 141.055H21.9141C21.5563 141.592 21.1985 141.949 20.9302 141.949C20.6618 141.949 20.3935 141.413 20.9302 140.25L22.898 135.509ZM16.1896 137.567C16.4579 136.672 16.279 135.867 15.6529 135.867C14.8479 135.867 14.5796 136.493 13.7746 138.282V137.209C13.7746 136.493 13.5062 135.778 12.8801 135.778C12.0751 135.778 11.3595 137.03 10.8229 138.193H11.1806C11.5384 137.656 11.8962 137.298 12.1645 137.298C12.5223 137.298 12.7012 137.835 12.1645 138.998L10.644 142.307C10.3756 142.933 10.644 143.381 11.2701 143.381C11.6279 143.381 11.8068 143.291 11.9856 142.844L13.5062 138.908C13.9534 138.372 14.3112 137.924 14.7584 137.477H16.1896V137.567ZM5.45615 143.202L5.63504 142.754C3.7567 142.397 3.57781 142.397 4.29337 140.429L5.00893 138.282H7.06617C7.96062 138.282 7.96062 138.64 7.87117 139.624H8.40784L9.66008 136.225H9.1234C8.67618 137.03 8.3184 137.567 7.3345 137.567H5.27726L6.35061 134.615C6.70839 133.72 6.88728 133.452 8.13951 133.452H9.03396C10.2862 133.452 10.4651 133.81 10.4651 135.152H11.0018L11.449 132.826H3.75669L3.57781 133.273C5.09837 133.542 5.18782 133.72 4.47226 135.599L2.7728 140.161C2.05724 142.039 1.7889 142.218 0.0894455 142.486L0 142.933H5.45615V143.202ZM43.202 119.499C43.7387 119.499 44.1859 119.856 43.9176 120.84L41.5025 121.377C41.9498 120.304 42.6653 119.499 43.202 119.499ZM44.5437 123.345H44.0964C43.4703 124.06 42.8442 124.597 42.2181 124.597C41.592 124.597 41.2342 124.239 41.2342 123.345C41.2342 122.987 41.2342 122.629 41.3237 122.272L45.1698 121.019C45.8854 119.23 44.9909 118.425 43.9176 118.425C42.1287 118.425 39.982 121.466 39.982 124.15C39.982 125.313 40.5186 126.028 41.4131 126.028C42.4864 126.028 43.6492 125.044 44.5437 123.345V123.345ZM43.7387 117.71L46.422 115.205V114.937H44.9909L43.2914 117.799H43.7387V117.71ZM35.4203 119.499H36.6725L34.6153 125.044C34.4364 125.492 34.7047 126.028 35.1519 126.028C36.3147 126.028 38.1931 124.865 38.8192 123.345H38.4614C37.9247 123.882 36.9408 124.597 36.1358 124.776L38.0142 119.588H39.8925L40.1609 118.783H38.2825L38.9981 116.815H38.2825L36.9408 118.783L35.3308 118.962V119.499H35.4203ZM33.7208 119.23C33.8997 118.694 33.5419 118.425 33.2736 118.425C32.2002 118.425 30.8586 119.409 30.3219 120.84H30.6797C31.0375 120.304 31.6636 119.767 32.2002 119.678L30.0536 125.223C29.8747 125.76 30.2325 126.028 30.5008 126.028C31.5741 126.028 32.8264 125.044 33.363 123.613H33.0053C32.6475 124.15 32.0214 124.687 31.4847 124.776L33.7208 119.23ZM34.0786 116.458C34.6153 116.458 34.973 116.01 34.973 115.563C34.973 115.026 34.5258 114.669 34.0786 114.669C33.5419 114.669 33.1841 115.116 33.1841 115.563C33.1841 116.1 33.5419 116.458 34.0786 116.458ZM26.6547 124.776L30.5008 114.579L30.4113 114.4L27.9963 114.669V114.937L28.4436 115.295C28.8908 115.653 28.7119 115.921 28.3541 116.994L25.313 124.955C25.1341 125.402 25.4024 125.939 25.8496 125.939C26.923 125.939 28.1752 124.955 28.7119 123.524H28.3541C27.9963 124.15 27.1913 124.687 26.6547 124.776V124.776ZM19.2307 123.882C19.2307 122.182 21.1091 119.856 22.1824 119.856C22.4507 119.856 22.6296 119.856 22.8085 119.946L21.7352 122.898C21.1091 123.703 20.1252 124.597 19.6779 124.597C19.4096 124.597 19.2307 124.329 19.2307 123.882ZM25.1341 118.157H24.508L23.8819 118.783H23.7924C20.5724 118.783 17.889 122.361 17.889 124.955C17.889 125.67 18.3363 126.118 19.0518 126.118C19.8568 126.118 20.6618 124.955 21.5563 123.703V124.15C21.4668 125.402 21.8246 126.118 22.5402 126.118C23.3452 126.118 24.0607 124.865 24.5974 123.703H24.2396C23.8819 124.239 23.5241 124.597 23.2557 124.597C22.9874 124.597 22.7191 124.06 23.2557 122.898L25.1341 118.157ZM10.9123 127.37C10.9123 126.654 11.6279 126.207 12.6118 125.76C12.9695 125.939 13.4168 126.118 14.1323 126.297C15.2057 126.654 15.5635 126.744 15.5635 127.102C15.5635 127.817 14.4007 128.264 12.7907 128.264C11.6279 128.354 10.9123 128.085 10.9123 127.37ZM13.864 122.898C13.4168 122.898 13.2379 122.54 13.2379 122.093C13.2379 120.84 13.864 119.051 14.9373 119.051C15.3846 119.051 15.5635 119.409 15.5635 119.856C15.5635 121.019 14.8479 122.898 13.864 122.898ZM16.9051 126.654C16.9051 125.76 16.1001 125.402 14.8479 125.044C13.7746 124.687 13.2379 124.597 13.2379 124.239C13.2379 123.971 13.5062 123.613 13.9534 123.345C15.7423 123.255 16.9946 121.645 16.9946 120.214C16.9946 119.946 16.9051 119.678 16.8157 119.409H18.3363L18.6046 118.604H16.1896C15.9212 118.425 15.5635 118.336 15.2057 118.336C13.2379 118.336 11.9856 120.035 11.9856 121.377C11.9856 122.45 12.6118 123.077 13.5062 123.255C12.6118 123.703 12.0751 124.15 12.0751 124.687C12.0751 125.044 12.1645 125.223 12.4329 125.402C10.3756 126.028 9.48118 126.744 9.48118 127.728C9.48118 128.712 10.7334 129.069 12.254 129.069C14.7584 129.248 16.9051 127.817 16.9051 126.654V126.654ZM7.15561 120.751C8.05006 120.751 8.05006 121.109 7.96062 122.093H8.49729L9.74952 118.694H9.21285C8.76562 119.499 8.40784 120.035 7.42395 120.035H5.36671L6.35061 117.263C6.70839 116.368 6.88728 116.189 8.13951 116.189H9.03396C10.2862 116.189 10.4651 116.547 10.4651 117.799H11.0018L11.449 115.474H3.75669L3.57781 115.921C5.09837 116.189 5.18782 116.368 4.47226 118.246L2.7728 122.808C2.05724 124.687 1.7889 124.865 0.0894455 125.134L0 125.581H8.58673L10.1073 123.166H9.48118C8.49729 124.06 7.24506 124.955 5.5456 124.955C3.30947 124.955 3.48836 124.865 4.20392 122.808L5.00893 120.572H7.15561V120.751ZM8.22895 114.937L10.9123 113.059V112.79H9.30229L7.78173 114.937H8.22895ZM42.3075 102.057C42.8442 102.057 43.2914 102.415 43.0231 103.399L40.6081 103.935C41.0553 102.862 41.6814 102.057 42.3075 102.057ZM43.5598 105.903H43.1126C42.4864 106.619 41.8603 107.155 41.2342 107.155C40.6081 107.155 40.2503 106.797 40.2503 105.903C40.2503 105.545 40.2503 105.187 40.3398 104.83L44.1859 103.577C44.9015 101.789 44.007 100.984 42.9337 100.984C41.1448 100.984 38.9981 104.025 38.9981 106.708C38.9981 107.871 39.5347 108.586 40.4292 108.586C41.592 108.586 42.6653 107.603 43.5598 105.903V105.903ZM42.8442 100.357L45.5276 97.853V97.5846H44.0964L42.397 100.447H42.8442V100.357ZM34.8836 102.146H35.8675L33.8103 107.692C33.6314 108.139 33.8997 108.676 34.3469 108.676C35.5097 108.676 37.3881 107.513 38.0142 105.992H37.6564C37.1197 106.529 36.1358 107.245 35.3308 107.424L37.2092 102.236H39.0875L39.3559 101.431H37.4775L38.1931 99.463H37.4775L36.1358 101.431L34.7942 101.61V102.146H34.8836ZM33.8103 102.772C34.0786 101.878 33.8997 101.073 33.2736 101.073C32.4686 101.073 32.2002 101.699 31.3952 103.488V102.415C31.3952 101.699 31.1269 100.984 30.5008 100.984C29.6958 100.984 28.9802 102.236 28.4436 103.399H28.8013C29.1591 102.862 29.5169 102.504 29.7852 102.504C30.143 102.504 30.3219 103.041 29.7852 104.204L28.2647 107.513C27.9963 108.139 28.2647 108.586 28.8908 108.586C29.2486 108.586 29.4274 108.497 29.6063 108.05L31.1269 104.114C31.5741 103.577 31.9319 103.13 32.3791 102.683H33.8103V102.772ZM25.313 102.057C25.8496 102.057 26.2969 102.415 26.0285 103.399L23.6135 103.935C24.0607 102.862 24.7763 102.057 25.313 102.057V102.057ZM26.6547 105.903H26.2074C25.5813 106.619 24.9552 107.155 24.3291 107.155C23.703 107.155 23.3452 106.797 23.3452 105.903C23.3452 105.545 23.3452 105.187 23.4346 104.83L27.2808 103.577C27.9963 101.789 27.1019 100.984 26.0285 100.984C24.2396 100.984 22.0929 104.025 22.0929 106.708C22.0929 107.871 22.6296 108.586 23.5241 108.586C24.5974 108.586 25.7602 107.603 26.6547 105.903ZM17.1735 107.513C16.8157 107.513 16.279 107.155 16.279 106.887C16.279 106.797 16.4579 106.35 16.6368 105.814L17.2629 104.114C17.889 103.309 18.9624 102.504 19.499 102.504C19.8568 102.504 20.1252 102.683 20.1252 103.22C20.1252 104.74 18.694 107.513 17.1735 107.513V107.513ZM21.5563 102.594C21.5563 101.431 21.1091 101.073 20.3935 101.073C19.4096 101.073 18.5151 102.146 17.6207 103.399L19.9463 97.3163L19.8568 97.1374L17.4418 97.4058V97.6741L17.889 98.0319C18.3363 98.3897 18.1574 98.7474 17.7996 99.7313L15.2951 106.171C15.1162 106.619 14.8479 107.245 14.8479 107.334C14.8479 107.96 15.7423 108.586 16.5474 108.586C18.4257 108.586 21.5563 105.187 21.5563 102.594V102.594ZM13.9534 101.878C14.1323 101.341 13.7746 101.073 13.5062 101.073C12.4329 101.073 11.0912 102.057 10.5545 103.488H10.9123C11.2701 102.951 11.8962 102.415 12.4329 102.325L10.2862 107.871C10.1073 108.408 10.4651 108.676 10.7334 108.676C11.8068 108.676 13.059 107.692 13.5957 106.261H13.2379C12.8801 106.797 12.254 107.334 11.7173 107.424L13.9534 101.878ZM14.3112 99.0158C14.8479 99.0158 15.2057 98.5685 15.2057 98.1213C15.2057 97.5847 14.7584 97.2269 14.3112 97.2269C13.7746 97.2269 13.4168 97.6741 13.4168 98.1213C13.4168 98.658 13.864 99.0158 14.3112 99.0158ZM8.76562 98.1213H3.66725L3.48836 98.5685C5.00893 98.8369 5.09837 99.0158 4.38281 100.894L2.7728 105.456C2.05724 107.334 1.7889 107.513 0.0894455 107.781L0 108.229H7.69228L9.39174 105.277H8.76562C7.78173 106.35 6.70839 107.602 5.00893 107.602C3.7567 107.602 3.57781 107.424 4.29337 105.456L5.90338 100.894C6.61894 99.0158 6.88728 98.8369 8.58673 98.5685L8.76562 98.1213Z" fill="black"/>
<path d="M0 56.4399V38.0142H4.74059L9.21285 45.617L13.6851 38.0142H18.4257V56.5293H14.669V43.2914L10.5545 50.0893H7.96062L3.84614 43.2914V56.4399H0ZM23.5241 56.4399V38.0142H27.2808V56.5293H23.5241V56.4399ZM32.3791 56.4399V38.0142H37.2092L45.4381 51.2521V38.0142H49.1948V56.5293H44.3648L36.1358 43.2914V56.5293H32.3791V56.4399ZM54.3826 56.4399V38.0142H58.1393V56.5293H54.3826V56.4399ZM61.6277 53.9354L64.3111 51.4309C64.8477 52.1465 65.4738 52.6832 66.1894 53.1304C66.905 53.5776 67.6205 53.7565 68.4255 53.7565C69.1411 53.7565 69.7672 53.5776 70.125 53.2198C70.5722 52.8621 70.7511 52.3254 70.7511 51.6098C70.7511 50.8048 70.3039 50.1787 69.4094 49.7315C68.515 49.2843 67.5311 48.837 66.5472 48.3004C65.5633 47.7637 64.4899 47.1376 63.6849 46.3326C62.8799 45.5276 62.3433 44.3648 62.3433 42.8442C62.3433 42.1287 62.5221 41.4131 62.7905 40.787C63.0588 40.1609 63.506 39.5347 64.0427 39.0875C64.5794 38.6403 65.2055 38.1931 65.9211 37.9247C66.6366 37.6564 67.4416 37.4775 68.3361 37.4775C69.6778 37.4775 70.93 37.7458 72.0033 38.372C73.0767 38.9086 73.9711 39.7136 74.7761 40.6081L72.0033 43.0231C71.4667 42.3075 70.8405 41.7709 70.3039 41.3236C69.6778 40.8764 69.0516 40.6975 68.3361 40.6975C67.71 40.6975 67.1733 40.8764 66.8155 41.2342C66.4577 41.592 66.2788 42.0392 66.2788 42.5759C66.2788 43.3809 66.7261 44.007 67.6205 44.4542C68.515 44.9014 69.4989 45.3487 70.4828 45.8853C71.4667 46.422 72.54 47.0481 73.345 47.8531C74.2395 48.6581 74.6867 49.8209 74.6867 51.4309C74.6867 52.3254 74.5078 53.041 74.15 53.7565C73.7922 54.4721 73.345 55.0088 72.8083 55.456C72.2717 55.9032 71.6456 56.261 70.8405 56.5293C70.0355 56.7977 69.32 56.8871 68.4255 56.8871C66.905 56.8871 65.5633 56.6188 64.4005 56.0821C63.4166 55.6349 62.4327 54.9193 61.6277 53.9354ZM76.565 41.4131V38.0142H91.6813V41.4131H85.9568V56.4399H82.2001V41.4131H76.565ZM94.9907 56.4399V38.0142H105.724V41.2342H98.7474V45.5276H104.74V48.7476H98.7474V53.3093H105.724V56.5293H94.9907V56.4399ZM98.658 36.4042L95.2591 32.8264H99.1052L102.057 36.4042H98.658ZM110.107 56.4399V38.0142H115.742C117.799 38.0142 119.409 38.5508 120.572 39.5347C121.735 40.5186 122.361 41.8603 122.361 43.5598C122.361 44.6331 122.093 45.617 121.556 46.422C121.019 47.227 120.304 47.8531 119.409 48.3004L125.223 56.4399H120.751L115.831 49.0159H113.864V56.4399H110.107ZM115.921 41.2342H113.774V45.8853H115.921C116.726 45.8853 117.352 45.7065 117.799 45.2592C118.246 44.812 118.425 44.2753 118.425 43.5598C118.425 42.8442 118.246 42.3075 117.799 41.8603C117.352 41.4131 116.726 41.2342 115.921 41.2342V41.2342ZM127.459 56.4399V38.0142H138.193V41.2342H131.216V45.5276H137.209V48.7476H131.216V53.3093H138.193V56.5293H127.459V56.4399ZM0 84.3468V65.8316H7.24506C8.67618 65.8316 10.0179 66.1 11.2701 66.5472C12.5223 67.0838 13.5062 67.71 14.4007 68.515C15.2951 69.32 15.9212 70.3039 16.3685 71.4667C16.8157 72.54 17.084 73.7922 17.084 75.0445C17.084 76.2967 16.8157 77.4595 16.3685 78.6223C15.9212 79.6956 15.2057 80.6795 14.4007 81.574C13.5062 82.379 12.5223 83.0945 11.2701 83.5418C10.0179 84.0784 8.67618 84.2573 7.24506 84.2573H0V84.3468ZM7.3345 69.32H3.75669V80.9478H7.3345C8.22895 80.9478 8.94451 80.769 9.74952 80.5006C10.4651 80.2323 11.0912 79.7851 11.6279 79.2484C12.1645 78.7117 12.5223 78.0856 12.8801 77.37C13.1484 76.6545 13.3273 75.9389 13.3273 75.0445C13.3273 74.2395 13.1484 73.4344 12.8801 72.7189C12.6118 72.0033 12.1645 71.3772 11.6279 70.8405C11.0912 70.3039 10.4651 69.9461 9.74952 69.5883C8.94451 69.4989 8.13951 69.32 7.3345 69.32V69.32ZM20.6618 84.3468V65.8316H31.3952V69.0516H24.4185V73.345H30.4113V76.565H24.4185V81.2162H31.3952V84.4362H20.6618V84.3468ZM42.6653 84.3468V65.8316H46.422V80.8584H53.3987V84.2573H42.6653V84.3468ZM55.7243 73.5239H52.5937L55.0088 65.9211H58.7655L55.7243 73.5239ZM61.7171 84.3468V65.8316H65.4738V84.3468H61.7171ZM70.6617 84.3468V65.8316H75.4917L83.7206 79.0695V65.8316H87.4773V84.3468H82.6473L74.4184 71.1089V84.3468H70.6617ZM90.6974 69.32V65.9211H105.814V69.32H100.089V84.3468H96.3324V69.32H90.6974ZM109.123 84.3468V65.8316H119.856V69.0516H112.88V73.345H118.873V76.565H112.88V81.2162H119.856V84.4362H109.123V84.3468ZM116.189 64.311H112.79L115.742 60.7332H119.588L116.189 64.311ZM124.239 84.3468V65.8316H129.874C131.932 65.8316 133.542 66.3683 134.704 67.3522C135.867 68.3361 136.493 69.6778 136.493 71.3772C136.493 72.4505 136.225 73.4345 135.688 74.2395C135.152 75.0445 134.436 75.6706 133.542 76.1178L139.356 84.2573H134.883L129.964 76.8334H127.996V84.2573H124.239V84.3468ZM130.143 69.1411H127.996V73.7922H130.143C130.948 73.7922 131.574 73.6133 132.021 73.1661C132.468 72.7189 132.647 72.1822 132.647 71.4667C132.647 70.7511 132.468 70.2144 132.021 69.7672C131.574 69.32 130.948 69.1411 130.143 69.1411V69.1411ZM141.681 84.3468V65.8316H145.438V84.3468H141.681ZM150.536 84.3468V65.8316H161.27V69.0516H154.293V73.345H160.286V76.565H154.293V81.2162H161.27V84.4362H150.536V84.3468ZM176.475 77.4595V65.9211H180.232V77.1911C180.232 79.6062 179.516 81.4845 178.175 82.9156C176.833 84.2573 175.044 84.9729 172.719 84.9729C170.393 84.9729 168.604 84.2573 167.262 82.9156C165.921 81.574 165.295 79.6062 165.295 77.1911V65.9211H169.051V77.4595C169.051 78.7117 169.409 79.6956 170.035 80.3217C170.661 81.0373 171.645 81.3951 172.808 81.3951C173.971 81.3951 174.865 81.0373 175.491 80.3217C176.117 79.6956 176.475 78.7117 176.475 77.4595V77.4595ZM184.883 84.3468V65.8316H190.518C192.575 65.8316 194.185 66.3683 195.348 67.3522C196.511 68.3361 197.137 69.6778 197.137 71.3772C197.137 72.4505 196.869 73.4345 196.332 74.2395C195.795 75.0445 195.08 75.6706 194.185 76.1178L199.999 84.2573H195.527L190.608 76.8334H188.64V84.2573H184.883V84.3468ZM190.697 69.1411H188.55V73.7922H190.697C191.502 73.7922 192.128 73.6133 192.575 73.1661C193.023 72.7189 193.201 72.1822 193.201 71.4667C193.201 70.7511 193.023 70.2144 192.575 69.7672C192.128 69.32 191.502 69.1411 190.697 69.1411V69.1411Z" fill="black"/>
<path d="M28.8013 22.3613C29.0697 22.093 29.338 21.8246 29.6063 21.4668C30.143 20.9302 30.5902 20.304 31.2163 19.8568C31.3952 19.6779 31.5741 19.5885 31.753 19.4096C31.8425 19.3201 31.8425 19.2307 31.8425 19.2307C31.5741 19.3202 31.4847 19.499 31.2163 19.5885C31.1269 19.5885 31.1269 19.499 31.1269 19.499C31.3058 19.4096 31.4847 19.2307 31.6636 19.1413C31.5741 19.1413 31.5741 19.0518 31.5741 19.0518C30.948 18.9624 30.5008 19.4096 30.0536 19.7674C29.9641 19.8568 29.8747 19.6779 29.7852 19.6779C29.0697 19.9463 28.533 20.5724 27.8174 20.8407V20.7513C27.5491 20.8407 27.2808 21.0196 26.923 21.1091C26.4758 21.1985 26.118 21.1985 25.7602 21.1985C25.2235 21.2879 24.5974 21.3774 24.0607 21.4668C24.0607 21.4668 24.0607 21.4668 23.9713 21.4668C23.703 21.5563 23.3452 21.6457 23.0768 21.8246L22.9874 21.9141C22.8979 22.0035 22.8085 22.093 22.6296 22.1824C22.3613 22.3613 22.0929 22.6296 21.8246 22.8085H21.7352C21.4668 23.0768 21.1985 23.3452 20.9302 23.5241C20.9302 23.5241 20.8407 23.5241 20.7513 23.5241C20.7513 23.5241 20.7513 23.5241 20.7513 23.4346C20.7513 23.3452 20.8407 23.2557 20.8407 23.2557C20.9302 23.1663 20.9302 23.0768 21.0196 23.0768C21.109 22.9874 21.109 22.898 21.1985 22.8085V22.7191C21.1985 22.7191 21.1985 22.7191 21.109 22.7191C21.3774 22.4507 21.6457 22.2718 21.9141 22.0929C21.9141 22.0929 21.8246 22.0929 21.8246 22.0035L21.9141 21.9141C21.8246 22.0035 21.7352 22.0035 21.6457 22.0929C21.5563 22.1824 21.4668 22.4507 21.2879 22.3613H21.1985C21.1985 22.3613 21.1985 22.3613 21.109 22.3613C21.109 22.3613 21.109 22.3613 21.109 22.2718C21.109 22.2718 21.109 22.1824 21.1985 22.1824C21.1985 22.1824 21.1985 22.1824 21.1985 22.0929C21.1985 22.0929 21.1985 22.0035 21.2879 22.0035V21.9141C21.3774 21.8246 21.4668 21.7352 21.6457 21.6457C21.8246 21.5563 22.0035 21.4668 22.1824 21.3774L22.2718 21.2879C22.0035 21.3774 21.7352 21.4668 21.4668 21.6457H21.3774H21.2879C21.3774 21.5563 21.4668 21.4668 21.5563 21.3774C21.6457 21.3774 21.6457 21.3774 21.6457 21.4668C23.1663 20.304 25.313 20.5724 27.1019 19.9463C27.2808 19.8568 27.3702 19.7674 27.5491 19.6779C27.8174 19.5885 27.9963 19.3202 28.2647 19.2307C28.6224 18.9624 28.8908 18.6046 29.0697 18.1574C29.0697 18.0679 28.9802 18.0679 28.9802 18.0679C28.3541 18.7835 27.6385 19.2307 26.8335 19.6779C25.8496 20.2146 24.6869 20.1252 23.703 20.2146C23.7924 20.1252 23.8818 20.1252 23.9713 20.1252C23.9713 19.9463 24.0607 19.9463 24.1502 19.8568H24.6868C24.7763 19.8568 24.7763 19.7674 24.7763 19.7674C24.8657 19.7674 25.0446 19.6779 24.9552 19.6779C24.7763 19.499 24.508 19.8568 24.2396 19.6779C24.3291 19.5885 24.3291 19.4096 24.4185 19.4096H24.5974C24.5974 19.3201 24.6868 19.2307 24.6868 19.2307C25.4024 18.7835 26.118 18.4257 26.7441 18.0679C26.5652 18.0679 26.4758 18.2468 26.3863 18.1574C26.4758 18.1574 26.3863 17.9785 26.4758 17.9785C27.0124 17.7996 27.4596 17.5312 27.9963 17.3524C27.8174 17.3524 27.6385 17.5312 27.4596 17.3524C27.5491 17.2629 27.6385 17.1735 27.728 17.1735V16.9946C27.728 16.9051 27.8174 16.9051 27.8174 16.9051C27.728 16.9051 27.728 16.8157 27.728 16.8157C27.8174 16.7262 27.9069 16.7262 27.9963 16.6368C27.9069 16.6368 27.8174 16.6368 27.8174 16.5474C27.9963 16.3685 28.1752 16.279 28.4435 16.279C28.3541 16.1896 28.2647 16.279 28.2647 16.1896C28.2647 16.1001 28.3541 16.1001 28.3541 16.1001H28.2647C28.1752 16.0107 28.1752 15.9212 28.1752 15.9212C28.4435 15.5635 28.4435 15.1162 28.6224 14.7584C28.533 14.7584 28.533 14.7584 28.533 14.669C28.0858 15.2057 27.2808 15.3846 26.5652 15.5635H26.2969C26.0285 15.6529 25.7602 15.6529 25.4919 15.474C25.313 15.3846 25.2235 15.2057 25.0446 15.1162C24.6869 14.8479 24.2396 14.669 23.8818 14.5796C22.7191 14.2218 21.4668 14.0429 20.2146 14.0429C20.7513 13.7746 21.2879 13.7746 21.9141 13.5957C22.7191 13.3273 23.5241 13.059 24.3291 13.1484C24.1502 13.059 23.9713 13.1484 23.8818 13.1484C23.1663 13.059 22.5402 13.3273 21.8246 13.4168C21.3774 13.5062 20.9302 13.6851 20.3935 13.7746C20.1251 13.864 19.9463 14.1323 19.5885 14.1323V13.9534C20.0357 13.4168 20.6618 12.7907 21.3774 12.7907C22.2718 12.6118 23.0768 12.7907 23.8818 12.8801C24.508 12.9695 25.0446 13.059 25.6707 13.2379C25.9391 13.2379 25.9391 13.5957 26.118 13.6851C26.3863 13.7746 26.6546 13.6851 27.0124 13.864C27.0124 13.7746 26.923 13.6851 27.0124 13.5957C27.1913 13.4168 27.4596 13.6851 27.6385 13.5062C27.9963 13.2379 27.2808 12.8801 27.1019 12.5223C27.1019 12.4329 27.1913 12.4329 27.1913 12.4329C27.5491 12.7907 27.8174 13.1484 28.3541 13.4168C28.6224 13.5062 29.1591 13.6851 29.0697 13.3273C28.8013 12.7907 28.3541 12.3434 27.9963 11.8962V11.7173C27.9069 11.7173 27.9069 11.6279 27.8174 11.6279V11.449C27.6385 11.3595 27.6385 11.1806 27.5491 11.0018C27.3702 10.7334 27.4596 10.4651 27.3702 10.1073C27.4596 9.74952 27.3702 9.48119 27.3702 9.21285C27.1913 8.40784 27.0124 7.69228 26.923 6.88727C26.8335 5.99282 27.4596 5.27726 27.9069 4.47226C28.2647 3.93559 28.6224 3.30947 29.2486 2.95169C29.4274 2.41502 29.7852 1.87835 30.143 1.43112C30.5008 0.983897 31.1269 0.715561 31.6636 0.447226C32.2897 0.17889 32.9158 0 32.9158 0H42.4864C42.4864 0 42.5759 3.39873e-07 42.7548 0.0894455C42.9337 0.178891 43.2914 0.357781 43.4703 0.447226C43.8281 0.626116 44.1859 0.894451 44.3648 1.25223C44.4542 1.43112 44.6331 1.69946 44.5437 1.87835C44.4542 2.14668 44.3648 2.50446 44.1859 2.59391C43.9176 2.7728 43.5598 2.7728 43.202 2.68335C43.0231 2.68335 42.8442 2.59391 42.6653 2.59391C43.3809 2.86224 44.0964 3.22003 44.5437 3.84614C44.6331 3.93559 44.812 4.02503 44.9909 4.02503C45.0803 4.02503 45.0803 4.11448 45.0803 4.20392C44.9909 4.29337 44.9014 4.38281 44.9014 4.47226H45.0803C45.3487 4.38281 45.2592 3.93559 45.617 4.02503C45.8853 4.20392 45.9748 4.47226 45.7959 4.74059C45.617 4.91948 45.4381 5.09837 45.2592 5.18782C45.1698 5.27726 45.1698 5.45615 45.2592 5.5456C45.4381 5.72449 45.4381 5.90338 45.5276 6.08227C45.7065 6.44005 45.7065 6.79783 45.8853 7.15561C46.0642 7.87117 46.2431 8.58673 46.2431 9.30229C46.2431 9.66007 46.0642 10.0179 46.1537 10.3756C46.2431 10.7334 46.5115 11.0912 46.6904 11.3595C46.8692 11.6279 47.0481 11.8068 47.227 12.1645C47.4954 12.6118 48.032 13.1484 47.7637 13.6851C47.5848 14.0429 47.0481 13.9534 46.7798 14.1323C46.5115 14.4007 46.6904 14.7584 46.8692 15.0268C47.1376 15.474 46.6009 15.7423 46.2431 15.9212C46.3326 16.1001 46.5115 16.0107 46.6009 16.1001C46.6904 16.3685 46.8692 16.4579 46.7798 16.7262C46.6009 16.9946 45.9748 17.1735 46.3326 17.6207C46.5115 17.9785 46.422 18.3363 46.2431 18.694C46.0642 19.1413 45.7065 19.3201 45.3487 19.4096C45.0803 19.499 44.7226 19.499 44.4542 19.499C44.3648 19.4096 44.2753 19.4096 44.1859 19.4096C43.3809 19.3201 42.5759 19.0518 41.7709 19.0518C41.5025 19.1413 41.3236 19.1413 41.1448 19.2307C40.9659 19.4096 40.6975 19.5885 40.6081 19.7674L40.5186 19.8568C40.5186 19.8568 40.5186 19.9463 40.4292 19.9463C40.4292 19.9463 40.4292 19.9463 40.4292 20.0357C40.2503 20.2146 40.1609 20.3935 40.0714 20.5724V20.6618C39.8925 20.9302 39.8031 21.2879 39.7136 21.5563C39.3559 22.6296 39.5347 23.6135 39.8031 23.7924C39.8925 23.8819 41.4131 24.3291 42.397 24.7763C42.9337 24.9552 43.202 25.1341 43.5598 25.313H23.8818C24.7763 24.6869 25.6707 24.3291 27.0124 23.703C27.0124 23.4346 28.3541 22.8085 28.8013 22.3613V22.3613ZM21.4668 18.8729C21.3774 18.8729 21.1985 18.9624 21.1985 18.7835C21.2879 18.5151 21.5563 18.5151 21.7352 18.4257C21.8246 18.3363 22.0035 18.2468 22.0929 18.3363C22.1824 18.5151 22.3613 18.4257 22.4507 18.5151C22.1824 18.8729 21.7352 18.7835 21.4668 18.8729ZM14.1323 17.7996L14.0429 17.7101C14.669 16.9051 15.1162 16.1001 15.5634 15.2951C16.1896 14.9373 16.7262 14.4901 17.1735 13.9534C17.9785 13.059 18.8729 12.3434 19.8568 11.8068C20.2146 11.6279 20.7513 11.7173 21.109 11.8962C20.9302 12.0751 20.7513 12.0751 20.5724 12.1645C20.4829 12.1645 20.4829 12.1645 20.3935 12.0751C20.4829 11.9857 20.4829 11.9856 20.4829 11.8962C20.0357 12.4329 19.3201 12.7012 18.9624 13.3273C18.694 13.7746 18.5151 14.4007 17.889 14.5796C17.7101 14.669 17.9785 14.4007 17.7996 14.4901C16.279 15.474 15.2951 16.5474 14.1323 17.7996V17.7996ZM18.0679 14.669C17.9785 14.7584 17.9785 14.7584 17.889 14.8479C17.7996 14.9373 17.7996 15.0268 17.7101 15.0268C17.6207 15.0268 17.6207 15.0268 17.6207 14.9373C17.7101 14.7584 17.7996 14.5796 17.9785 14.4901C18.0679 14.5796 18.0679 14.669 18.0679 14.669V14.669ZM20.304 21.8246C20.304 21.9141 20.2146 21.9141 20.2146 22.0035C20.304 22.0035 20.304 22.0035 20.304 22.0929C20.2146 22.1824 20.1251 22.2718 19.9463 22.3613C19.9463 22.3613 19.9463 22.3613 19.8568 22.3613C19.7674 22.4507 19.7674 22.4507 19.6779 22.5402C19.5885 22.6296 19.3201 22.5402 19.4096 22.4507C19.499 22.3613 19.6779 22.1824 19.7674 22.0929C19.8568 22.0035 19.9463 22.0035 19.9463 21.9141L20.0357 21.8246C20.1251 21.8246 20.3935 21.7352 20.304 21.8246ZM19.499 21.4668C19.4096 21.4668 19.4096 21.4668 19.499 21.4668C19.3201 21.6457 19.1413 21.7352 18.9624 21.8246C18.7835 21.9141 18.5151 22.0035 18.3362 22.0929H18.2468C18.0679 22.1824 17.889 22.3613 17.7996 22.4507C17.7996 22.4507 17.7996 22.4507 17.7101 22.5402L17.6207 22.6296L17.5312 22.7191C17.5312 22.7191 17.5312 22.8085 17.4418 22.8085H17.3523H17.2629H17.1735C17.084 22.898 17.084 22.898 16.9946 22.9874C16.9051 23.0768 16.8157 23.1663 16.7262 23.2557C16.7262 23.2557 16.7262 23.2557 16.7262 23.3452V23.2557C16.8157 23.1663 16.8157 23.1663 16.9051 23.0768C16.9051 23.0768 16.9051 23.0768 16.9946 22.9874L17.084 22.898C17.1735 22.8085 17.1735 22.7191 17.2629 22.7191L17.3523 22.6296C17.3523 22.6296 17.3524 22.5402 17.4418 22.5402C17.4418 22.5402 17.4418 22.4507 17.5312 22.4507C17.5312 22.4507 17.5312 22.4507 17.5312 22.3613V22.2718C17.6207 22.1824 17.6207 22.0929 17.7101 22.0035C17.6207 22.0035 17.6207 22.093 17.5312 22.1824C17.4418 22.1824 17.3524 22.1824 17.4418 22.0929L17.5312 22.0035C17.6207 21.9141 17.7101 21.8246 17.7996 21.7352C17.889 21.7352 17.889 21.6457 17.9785 21.6457L18.0679 21.5563C18.5151 21.1091 19.3201 21.1091 19.9463 20.8407C20.2146 20.7513 20.4829 20.9302 20.7513 20.8407C20.9302 20.8407 21.0196 20.8407 21.1985 20.9302C20.2146 20.9302 19.8568 21.1985 19.499 21.4668V21.4668ZM20.3935 18.1574C20.304 18.0679 20.5724 18.1574 20.5724 18.0679H20.2146C20.1251 18.0679 20.1251 17.9785 20.1251 17.9785C19.8568 18.0679 19.5885 18.1574 19.3201 18.1574C18.9624 18.2468 18.694 18.5151 18.3362 18.6046C17.7996 18.7835 17.3523 19.2307 16.8157 19.4096C16.7262 19.4096 16.7262 19.3202 16.7262 19.3202C16.8157 19.1413 16.9946 19.1413 17.084 18.9624C17.084 18.8729 17.084 18.8729 16.9946 18.8729C17.3524 18.3363 17.889 18.0679 18.4257 17.6207V17.4418C18.6046 17.2629 18.7835 17.1735 18.8729 16.9051C18.9624 16.7262 19.1413 16.5474 19.3201 16.4579C19.2307 16.3685 19.1413 16.3685 19.1413 16.279C18.9624 16.279 18.7835 16.3685 18.6046 16.1896C18.694 16.1001 18.7835 16.0107 18.8729 16.0107C18.8729 16.0107 18.7835 16.0107 18.7835 15.9212C18.694 15.8318 18.8729 15.7423 19.0518 15.6529C19.2307 15.5635 19.499 15.5635 19.5885 15.474C19.2307 15.3846 18.8729 15.5635 18.5151 15.3846C18.7835 14.7584 19.1413 14.2218 19.6779 13.9534C19.7674 13.9534 19.8568 13.9534 19.8568 14.0429C19.8568 14.3112 19.6779 14.4901 19.499 14.4901C19.8568 14.5796 20.304 14.5796 20.6618 14.7584C20.5724 14.8479 20.4829 14.8479 20.4829 14.8479C20.7513 15.0268 21.0196 14.9373 21.2879 15.1162C21.109 15.2951 21.0196 15.1162 20.8407 15.1162C22.3613 15.5635 23.8818 15.9212 25.1341 16.8157C24.0607 17.3524 22.9874 17.6207 21.8246 17.7996C21.6457 17.7996 21.5563 17.7996 21.4668 17.7101C21.4668 17.7996 21.4668 17.889 21.3774 17.889C21.1985 17.889 21.0196 17.889 20.9302 17.9785C20.8407 18.2468 20.5724 18.2468 20.3935 18.1574" fill="white"/>
<path d="M28.8013 22.3613C29.0697 22.093 29.338 21.8246 29.6063 21.4668C30.143 20.9302 30.5902 20.304 31.2164 19.8568C31.3952 19.6779 31.5741 19.5885 31.753 19.4096C31.8425 19.3201 31.8425 19.2307 31.8425 19.2307C31.5741 19.3202 31.4847 19.499 31.2164 19.5885C31.1269 19.5885 31.1269 19.499 31.1269 19.499C31.3058 19.4096 31.4847 19.2307 31.6636 19.1413C31.5741 19.1413 31.5741 19.0518 31.5741 19.0518C30.948 18.9624 30.5008 19.4096 30.0536 19.7674C29.9641 19.8568 29.8747 19.6779 29.7852 19.6779C29.0697 19.9463 28.533 20.5724 27.8174 20.8407V20.7513C27.5491 20.8407 27.2808 21.0196 26.923 21.1091C26.4758 21.1985 26.118 21.1985 25.7602 21.1985C25.2235 21.2879 24.5974 21.3774 24.0607 21.4668C24.0607 21.4668 24.0607 21.4668 23.9713 21.4668C23.703 21.5563 23.3452 21.6457 23.0768 21.8246L22.9874 21.9141C22.898 22.0035 22.8085 22.093 22.6296 22.1824C22.3613 22.3613 22.0929 22.6296 21.8246 22.8085H21.7352C21.4668 23.0768 21.1985 23.3452 20.9302 23.5241C20.9302 23.5241 20.8407 23.5241 20.7513 23.5241C20.7513 23.5241 20.7513 23.5241 20.7513 23.4346C20.7513 23.3452 20.8407 23.2557 20.8407 23.2557C20.9302 23.1663 20.9302 23.0768 21.0196 23.0768C21.1091 22.9874 21.1091 22.898 21.1985 22.8085V22.7191C21.1985 22.7191 21.1985 22.7191 21.1091 22.7191C21.3774 22.4507 21.6457 22.2718 21.9141 22.0929C21.9141 22.0929 21.8246 22.0929 21.8246 22.0035L21.9141 21.9141C21.8246 22.0035 21.7352 22.0035 21.6457 22.0929C21.5563 22.1824 21.4668 22.4507 21.2879 22.3613H21.1985C21.1985 22.3613 21.1985 22.3613 21.1091 22.3613C21.1091 22.3613 21.1091 22.3613 21.1091 22.2718C21.1091 22.2718 21.1091 22.1824 21.1985 22.1824C21.1985 22.1824 21.1985 22.1824 21.1985 22.0929C21.1985 22.0929 21.1985 22.0035 21.2879 22.0035V21.9141C21.3774 21.8246 21.4668 21.7352 21.6457 21.6457C21.8246 21.5563 22.0035 21.4668 22.1824 21.3774L22.2718 21.2879C22.0035 21.3774 21.7352 21.4668 21.4668 21.6457H21.3774H21.2879C21.3774 21.5563 21.4668 21.4668 21.5563 21.3774C21.6457 21.3774 21.6457 21.3774 21.6457 21.4668C23.1663 20.304 25.313 20.5724 27.1019 19.9463C27.2808 19.8568 27.3702 19.7674 27.5491 19.6779C27.8174 19.5885 27.9963 19.3202 28.2647 19.2307C28.6224 18.9624 28.8908 18.6046 29.0697 18.1574C29.0697 18.0679 28.9802 18.0679 28.9802 18.0679C28.3541 18.7835 27.6385 19.2307 26.8335 19.6779C25.8496 20.2146 24.6869 20.1252 23.703 20.2146C23.7924 20.1252 23.8819 20.1252 23.9713 20.1252C23.9713 19.9463 24.0607 19.9463 24.1502 19.8568H24.6869C24.7763 19.8568 24.7763 19.7674 24.7763 19.7674C24.8657 19.7674 25.0446 19.6779 24.9552 19.6779C24.7763 19.499 24.508 19.8568 24.2396 19.6779C24.3291 19.5885 24.3291 19.4096 24.4185 19.4096H24.5974C24.5974 19.3201 24.6869 19.2307 24.6869 19.2307C25.4024 18.7835 26.118 18.4257 26.7441 18.0679C26.5652 18.0679 26.4758 18.2468 26.3863 18.1574C26.4758 18.1574 26.3863 17.9785 26.4758 17.9785C27.0124 17.7996 27.4597 17.5312 27.9963 17.3524C27.8174 17.3524 27.6385 17.5312 27.4597 17.3524C27.5491 17.2629 27.6385 17.1735 27.728 17.1735V16.9946C27.728 16.9051 27.8174 16.9051 27.8174 16.9051C27.728 16.9051 27.728 16.8157 27.728 16.8157C27.8174 16.7262 27.9069 16.7262 27.9963 16.6368C27.9069 16.6368 27.8174 16.6368 27.8174 16.5474C27.9963 16.3685 28.1752 16.279 28.4436 16.279C28.3541 16.1896 28.2647 16.279 28.2647 16.1896C28.2647 16.1001 28.3541 16.1001 28.3541 16.1001H28.2647C28.1752 16.0107 28.1752 15.9212 28.1752 15.9212C28.4436 15.5635 28.4436 15.1162 28.6224 14.7584C28.533 14.7584 28.533 14.7584 28.533 14.669C28.0858 15.2057 27.2808 15.3846 26.5652 15.5635H26.2969C26.0285 15.6529 25.7602 15.6529 25.4919 15.474C25.313 15.3846 25.2235 15.2057 25.0446 15.1162C24.6869 14.8479 24.2396 14.669 23.8819 14.5796C22.7191 14.2218 21.4668 14.0429 20.2146 14.0429C20.7513 13.7746 21.2879 13.7746 21.9141 13.5957C22.7191 13.3273 23.5241 13.059 24.3291 13.1484C24.1502 13.059 23.9713 13.1484 23.8819 13.1484C23.1663 13.059 22.5402 13.3273 21.8246 13.4168C21.3774 13.5062 20.9302 13.6851 20.3935 13.7746C20.1252 13.864 19.9463 14.1323 19.5885 14.1323V13.9534C20.0357 13.4168 20.6618 12.7907 21.3774 12.7907C22.2718 12.6118 23.0768 12.7907 23.8819 12.8801C24.508 12.9695 25.0446 13.059 25.6708 13.2379C25.9391 13.2379 25.9391 13.5957 26.118 13.6851C26.3863 13.7746 26.6547 13.6851 27.0124 13.864C27.0124 13.7746 26.923 13.6851 27.0124 13.5957C27.1913 13.4168 27.4597 13.6851 27.6385 13.5062C27.9963 13.2379 27.2808 12.8801 27.1019 12.5223C27.1019 12.4329 27.1913 12.4329 27.1913 12.4329C27.5491 12.7907 27.8174 13.1484 28.3541 13.4168C28.6224 13.5062 29.1591 13.6851 29.0697 13.3273C28.8013 12.7907 28.3541 12.3434 27.9963 11.8962V11.7173C27.9069 11.7173 27.9069 11.6279 27.8174 11.6279V11.449C27.6385 11.3595 27.6385 11.1806 27.5491 11.0018C27.3702 10.7334 27.4597 10.4651 27.3702 10.1073C27.4597 9.74952 27.3702 9.48119 27.3702 9.21285C27.1913 8.40784 27.0124 7.69228 26.923 6.88727C26.8335 5.99282 27.4597 5.27726 27.9069 4.47226C28.2647 3.93559 28.6224 3.30947 29.2486 2.95169C29.4274 2.41502 29.7852 1.87835 30.143 1.43112C30.5008 0.983897 31.1269 0.715561 31.6636 0.447226C32.2897 0.17889 32.9158 0 32.9158 0H0V25.313H23.2557C24.1502 24.6869 25.0446 24.3291 26.3863 23.703C27.0124 23.4346 28.3541 22.8085 28.8013 22.3613V22.3613ZM21.4668 18.8729C21.3774 18.8729 21.1985 18.9624 21.1985 18.7835C21.2879 18.5151 21.5563 18.5151 21.7352 18.4257C21.8246 18.3363 22.0035 18.2468 22.0929 18.3363C22.1824 18.5151 22.3613 18.4257 22.4507 18.5151C22.1824 18.8729 21.8246 18.7835 21.4668 18.8729ZM14.1323 17.7996L14.0429 17.7101C14.669 16.9051 15.1162 16.1001 15.5635 15.2951C16.1896 14.9373 16.7262 14.4901 17.1735 13.9534C17.9785 13.059 18.8729 12.3434 19.8568 11.8068C20.2146 11.6279 20.7513 11.7173 21.1091 11.8962C20.9302 12.0751 20.7513 12.0751 20.5724 12.1645C20.4829 12.1645 20.4829 12.1645 20.3935 12.0751C20.4829 11.9857 20.4829 11.9856 20.4829 11.8962C20.0357 12.4329 19.3201 12.7012 18.9624 13.3273C18.694 13.7746 18.5151 14.4007 17.889 14.5796C17.7101 14.669 17.9785 14.4007 17.7996 14.4901C16.279 15.474 15.2951 16.5474 14.1323 17.7996V17.7996ZM18.0679 14.669C17.9785 14.7584 17.9785 14.7584 17.889 14.8479C17.7996 14.9373 17.7996 15.0268 17.7101 15.0268C17.6207 15.0268 17.6207 15.0268 17.6207 14.9373C17.7101 14.7584 17.7996 14.5796 17.9785 14.4901C18.0679 14.5796 18.0679 14.669 18.0679 14.669V14.669ZM20.304 21.8246C20.304 21.9141 20.2146 21.9141 20.2146 22.0035C20.304 22.0035 20.304 22.0035 20.304 22.0929C20.2146 22.1824 20.1252 22.2718 19.9463 22.3613C19.9463 22.3613 19.9463 22.3613 19.8568 22.3613C19.7674 22.4507 19.7674 22.4507 19.6779 22.5402C19.5885 22.6296 19.3201 22.5402 19.4096 22.4507C19.499 22.3613 19.6779 22.1824 19.7674 22.0929C19.8568 22.0035 19.9463 22.0035 19.9463 21.9141L20.0357 21.8246C20.1252 21.8246 20.3935 21.7352 20.304 21.8246ZM19.499 21.4668C19.4096 21.4668 19.4096 21.4668 19.499 21.4668C19.3202 21.6457 19.1413 21.7352 18.9624 21.8246C18.7835 21.9141 18.5151 22.0035 18.3363 22.0929H18.2468C18.0679 22.1824 17.889 22.3613 17.7996 22.4507C17.7996 22.4507 17.7996 22.4507 17.7101 22.5402L17.6207 22.6296L17.5312 22.7191C17.5312 22.7191 17.5312 22.8085 17.4418 22.8085H17.3524H17.2629H17.1735C17.084 22.898 17.084 22.898 16.9946 22.9874C16.9051 23.0768 16.8157 23.1663 16.7262 23.2557C16.7262 23.2557 16.7262 23.2557 16.7262 23.3452V23.2557C16.8157 23.1663 16.8157 23.1663 16.9051 23.0768C16.9051 23.0768 16.9051 23.0768 16.9946 22.9874L17.084 22.898C17.1735 22.8085 17.1735 22.7191 17.2629 22.7191L17.3524 22.6296C17.3524 22.6296 17.3524 22.5402 17.4418 22.5402C17.4418 22.5402 17.4418 22.4507 17.5312 22.4507C17.5312 22.4507 17.5312 22.4507 17.5312 22.3613V22.2718C17.6207 22.1824 17.6207 22.0929 17.7101 22.0035C17.6207 22.0035 17.6207 22.093 17.5312 22.1824C17.4418 22.1824 17.3524 22.1824 17.4418 22.0929L17.5312 22.0035C17.6207 21.9141 17.7101 21.8246 17.7996 21.7352C17.889 21.7352 17.889 21.6457 17.9785 21.6457L18.0679 21.5563C18.5151 21.1091 19.3202 21.1091 19.9463 20.8407C20.2146 20.7513 20.4829 20.9302 20.7513 20.8407C20.9302 20.8407 21.0196 20.8407 21.1985 20.9302C20.2146 20.9302 19.8568 21.1985 19.499 21.4668V21.4668ZM20.4829 18.1574C20.3935 18.0679 20.6618 18.1574 20.6618 18.0679H20.2146C20.1252 18.0679 20.1252 17.9785 20.1252 17.9785C19.8568 18.0679 19.5885 18.1574 19.3202 18.1574C18.9624 18.2468 18.694 18.5151 18.3363 18.6046C17.7996 18.7835 17.3524 19.2307 16.8157 19.4096C16.7262 19.4096 16.7262 19.3202 16.7262 19.3202C16.8157 19.1413 16.9946 19.1413 17.084 18.9624C17.084 18.8729 17.084 18.8729 16.9946 18.8729C17.3524 18.3363 17.889 18.0679 18.4257 17.6207V17.4418C18.6046 17.2629 18.7835 17.1735 18.8729 16.9051C18.9624 16.7262 19.1413 16.5474 19.3202 16.4579C19.2307 16.3685 19.1413 16.3685 19.1413 16.279C18.9624 16.279 18.7835 16.3685 18.6046 16.1896C18.694 16.1001 18.7835 16.0107 18.8729 16.0107C18.8729 16.0107 18.7835 16.0107 18.7835 15.9212C18.694 15.8318 18.8729 15.7423 19.0518 15.6529C19.2307 15.5635 19.499 15.5635 19.5885 15.474C19.2307 15.3846 18.8729 15.5635 18.5151 15.3846C18.7835 14.7584 19.1413 14.2218 19.6779 13.9534C19.7674 13.9534 19.8568 13.9534 19.8568 14.0429C19.8568 14.3112 19.6779 14.4901 19.499 14.4901C19.8568 14.5796 20.304 14.5796 20.6618 14.7584C20.5724 14.8479 20.4829 14.8479 20.4829 14.8479C20.7513 15.0268 21.0196 14.9373 21.2879 15.1162C21.1091 15.2951 21.0196 15.1162 20.8407 15.1162C22.3613 15.5635 23.8819 15.9212 25.1341 16.8157C24.0607 17.3524 22.9874 17.6207 21.8246 17.7996C21.6457 17.7996 21.5563 17.7996 21.4668 17.7101C21.4668 17.7996 21.4668 17.889 21.3774 17.889C21.1985 17.889 21.0196 17.889 20.9302 17.9785C20.8407 18.2468 20.5724 18.2468 20.4829 18.1574" fill="#000091"/>
<path d="M69.6778 0H42.397C42.397 0 42.4864 3.39873e-07 42.6653 0.0894455C42.8442 0.178891 43.202 0.357781 43.3809 0.447226C43.7387 0.626116 44.0965 0.894451 44.2754 1.25223C44.3648 1.43112 44.5437 1.69946 44.4542 1.87835C44.3648 2.14668 44.2753 2.50446 44.0965 2.59391C43.8281 2.7728 43.4703 2.7728 43.1126 2.68335C42.9337 2.68335 42.7548 2.59391 42.5759 2.59391C43.2915 2.86224 44.007 3.22003 44.4542 3.84614C44.5437 3.93559 44.7226 4.02503 44.9015 4.02503C44.9909 4.02503 44.9909 4.11448 44.9909 4.20392C44.9015 4.29337 44.812 4.38281 44.812 4.47226H44.9909C45.2592 4.38281 45.1698 3.93559 45.5276 4.02503C45.7959 4.20392 45.8854 4.47226 45.7065 4.74059C45.5276 4.91948 45.3487 5.09837 45.1698 5.18782C45.0804 5.27726 45.0804 5.45615 45.1698 5.5456C45.3487 5.72449 45.3487 5.90338 45.4381 6.08227C45.617 6.44005 45.617 6.79783 45.7959 7.15561C45.9748 7.87117 46.1537 8.58673 46.1537 9.30229C46.1537 9.66007 45.9748 10.0179 46.0643 10.3756C46.1537 10.7334 46.422 11.0912 46.6009 11.3595C46.7798 11.6279 46.9587 11.8068 47.1376 12.1645C47.4059 12.6118 47.9426 13.1484 47.6743 13.6851C47.4954 14.0429 46.9587 13.9534 46.6904 14.1323C46.422 14.4007 46.6009 14.7584 46.7798 15.0268C47.0481 15.474 46.5115 15.7423 46.1537 15.9212C46.2431 16.1001 46.422 16.0107 46.5115 16.1001C46.6009 16.3685 46.7798 16.4579 46.6904 16.7262C46.5115 16.9946 45.8854 17.1735 46.2431 17.6207C46.422 17.9785 46.3326 18.3363 46.1537 18.694C45.9748 19.1413 45.617 19.3201 45.2592 19.4096C44.9909 19.499 44.6331 19.499 44.3648 19.499C44.2753 19.4096 44.1859 19.4096 44.0965 19.4096C43.2914 19.3201 42.4864 19.0518 41.6814 19.0518C41.4131 19.1413 41.2342 19.1413 41.0553 19.2307C40.8764 19.4096 40.6081 19.5885 40.5186 19.7674L40.4292 19.8568C40.4292 19.8568 40.4292 19.9463 40.3398 19.9463C40.3398 19.9463 40.3398 19.9463 40.3398 20.0357C40.1609 20.2146 40.0714 20.3935 39.982 20.5724V20.6618C39.8031 20.9302 39.7136 21.2879 39.6242 21.5563C39.2664 22.6296 39.4453 23.6135 39.7136 23.7924C39.8031 23.8819 41.3237 24.3291 42.3076 24.7763C42.8442 24.9552 43.1126 25.1341 43.4703 25.313H70.2144V0H69.6778Z" fill="#E1000F"/>
<path d="M44.0965 9.21285C44.2753 9.3023 44.5437 9.3023 44.5437 9.39174C44.4542 9.74952 43.9176 9.83897 43.5598 10.2862H43.4703C43.2914 10.3756 43.3809 10.644 43.202 10.644C43.0231 10.5545 42.9337 10.644 42.7548 10.7334C42.9337 10.9123 43.202 11.0912 43.4703 11.0018C43.5598 11.0018 43.6492 11.0912 43.6492 11.1806C43.6492 11.1806 43.7387 11.1806 43.7387 11.0912C43.8281 11.0912 43.8281 11.0912 43.8281 11.1806V11.2701C43.6492 11.449 43.4703 11.3595 43.2915 11.449C43.6492 11.5384 44.0965 11.5384 44.3648 11.449C44.6331 11.3595 44.3648 10.9123 44.5437 10.644C44.4542 10.644 44.5437 10.4651 44.4542 10.4651C44.5437 10.3756 44.6331 10.1967 44.7226 10.1967C44.812 10.1967 44.9909 10.1073 44.9909 10.0179C44.9909 9.92841 44.812 9.83897 44.812 9.74952C45.0804 9.57063 45.3487 9.3023 45.2592 8.94452C45.1698 8.76563 44.812 8.76562 44.5437 8.67618C44.2753 8.58673 44.007 8.67618 43.7387 8.76563C43.4703 8.76563 43.2914 8.94452 43.0231 8.94452C42.6653 9.03396 42.397 9.21285 42.1287 9.39174C42.4864 9.21285 42.8442 9.21285 43.202 9.1234C43.5598 9.21285 43.7387 9.12341 44.0965 9.21285" fill="#9C9B9B"/>
</svg>
